<svg height="512pt" viewBox="-22 0 512 512" width="512pt" xmlns="http://www.w3.org/2000/svg"><g fill="#b5bcc9"><path d="m214 414v-60h40v60"/><path d="m258 478c0 13.253906-10.746094 24-24 24s-24-10.746094-24-24 10.746094-24 24-24 24 10.746094 24 24zm0 0"/><path d="m149.667969 478c0 13.253906-10.746094 24-24 24-13.253907 0-24-10.746094-24-24s10.746093-24 24-24c13.253906 0 24 10.746094 24 24zm0 0"/><path d="m366.332031 478c0 13.253906-10.746093 24-24 24-13.253906 0-24-10.746094-24-24s10.746094-24 24-24c13.253907 0 24 10.746094 24 24zm0 0"/></g><path d="m346 290h-224v-201.5c0-43.355469 35.144531-78.5 78.5-78.5h67c43.355469 0 78.5 35.144531 78.5 78.5zm0 0" fill="#f6838d"/><path d="m352 354h-236c-17.671875 0-32-14.328125-32-32s14.328125-32 32-32h236c17.671875 0 32 14.328125 32 32s-14.328125 32-32 32zm0 0" fill="#f5737f"/><path d="m438 216h-24c-11.046875 0-20 8.953125-20 20s8.953125 20 20 20h24c11.046875 0 20-8.953125 20-20s-8.953125-20-20-20zm0 0" fill="#98a1b3"/><path d="m30 216h24c11.046875 0 20 8.953125 20 20s-8.953125 20-20 20h-24c-11.046875 0-20-8.953125-20-20s8.953125-20 20-20zm0 0" fill="#98a1b3"/><path d="m468 236c0-16.542969-13.457031-30-30-30h-24c-16.542969 0-30 13.457031-30 30s13.457031 30 30 30h1.5v23c0 12.585938-10.164062 22.839844-22.714844 22.992188-4.191406-17.085938-18.863281-30.09375-36.785156-31.796876v-191.695312c0-48.800781-39.699219-88.5-88.5-88.5h-67c-48.800781 0-88.5 39.699219-88.5 88.5v191.695312c-17.921875 1.703126-32.59375 14.710938-36.785156 31.796876-12.550782-.152344-22.714844-10.40625-22.714844-22.992188v-23h1.5c16.542969 0 30-13.457031 30-30s-13.457031-30-30-30h-24c-16.542969 0-30 13.457031-30 30s13.457031 30 30 30h2.5v23c0 23.613281 19.132812 42.835938 42.710938 42.992188 4.496093 18.351562 21.074218 32.007812 40.789062 32.007812h88v40h-43.167969c-23.652343 0-43.105469 18.28125-45 41.457031-13.96875 4.226563-24.167969 17.214844-24.167969 32.542969 0 18.746094 15.253907 34 34 34 18.75 0 34-15.253906 34-34 0-15.171875-9.988281-28.054688-23.738281-32.414062 1.746094-12.1875 12.246094-21.585938 24.90625-21.585938h63.167969v21.503906c-13.882812 4.28125-24 17.226563-24 32.496094 0 18.746094 15.253906 34 34 34s34-15.253906 34-34c0-15.269531-10.117188-28.21875-24-32.496094v-21.503906h63.421875c12.632813 0 23.117187 9.359375 24.894531 21.507812-13.875 4.285157-23.984375 17.226563-23.984375 32.492188 0 18.746094 15.253907 34 34 34 18.75 0 34-15.253906 34-34 0-15.234375-10.070312-28.160156-23.902343-32.46875-1.863282-23.210938-21.328126-41.53125-45.007813-41.53125h-43.421875v-40h88c19.714844 0 36.292969-13.65625 40.789062-32.007812 23.578126-.15625 42.710938-19.378907 42.710938-42.992188v-23h2.5c16.542969 0 30-13.457031 30-30zm-448 0c0-5.515625 4.484375-10 10-10h24c5.515625 0 10 4.484375 10 10s-4.484375 10-10 10h-24c-5.515625 0-10-4.484375-10-10zm105.667969 256c-7.722657 0-14-6.28125-14-14s6.277343-14 14-14c7.71875 0 14 6.28125 14 14s-6.28125 14-14 14zm216.664062 0c-7.71875 0-14-6.28125-14-14s6.28125-14 14-14c7.722657 0 14 6.28125 14 14s-6.277343 14-14 14zm-108.332031 0c-7.71875 0-14-6.28125-14-14s6.28125-14 14-14 14 6.28125 14 14-6.28125 14-14 14zm10-88h-20v-40h20zm108-60h-236c-12.132812 0-22-9.867188-22-22s9.867188-22 22-22h78c5.523438 0 10-4.476562 10-10s-4.476562-10-10-10h-62v-191.5c0-37.769531 30.730469-68.5 68.5-68.5h67c37.769531 0 68.5 30.730469 68.5 68.5v191.5h-62c-5.523438 0-10 4.476562-10 10s4.476562 10 10 10h78c12.132812 0 22 9.867188 22 22s-9.867188 22-22 22zm86-98h-24c-5.515625 0-10-4.484375-10-10s4.484375-10 10-10h24c5.515625 0 10 4.484375 10 10s-4.484375 10-10 10zm0 0"/><path d="m234 280c-2.628906 0-5.210938 1.070312-7.070312 2.929688-1.859376 1.859374-2.929688 4.441406-2.929688 7.070312s1.070312 5.210938 2.929688 7.070312c1.859374 1.859376 4.441406 2.929688 7.070312 2.929688s5.210938-1.070312 7.070312-2.929688c1.859376-1.859374 2.929688-4.441406 2.929688-7.070312s-1.070312-5.210938-2.929688-7.070312c-1.859374-1.859376-4.441406-2.929688-7.070312-2.929688zm0 0"/></svg>