<svg height="480pt" viewBox="0 -72 480 480" width="480pt" xmlns="http://www.w3.org/2000/svg"><path d="m368 40h104v256h-104zm0 0" fill="#88bf40"/><path d="m368 40h64v232c0 13.253906-10.746094 24-24 24h-40zm0 0" fill="#7ca540"/><path d="m8 40h408v232c0 13.253906-10.746094 24-24 24h-384zm0 0" fill="#88bf40"/><path d="m248 160c0 17.671875-14.328125 32-32 32s-32-14.328125-32-32 14.328125-32 32-32 32 14.328125 32 32zm0 0" fill="#eb4042"/><path d="m392 16h-48v232h48c13.253906 0 24 10.746094 24 24v-232c0-13.253906-10.746094-24-24-24zm0 0" fill="#f5be9a"/><path d="m472 32h-32v16h24v240h-44.449219c2.878907-4.84375 4.417969-10.367188 4.449219-16v-232c0-17.671875-14.328125-32-32-32h-48c-4.417969 0-8 3.582031-8 8v232c0 4.417969 3.582031 8 8 8h48c8.835938 0 16 7.164062 16 16s-7.164062 16-16 16h-296v-152l9.601562 12.800781 12.796876-9.601562-14.398438-19.199219c10.132812-.042969 19.148438-6.445312 22.527344-16h193.472656v-16h-193.472656c-2.046875-6.03125-6.445313-10.976562-12.195313-13.714844-5.75-2.734375-12.363281-3.027344-18.332031-.8125v-25.472656h224v-16h-312c-4.417969 0-8 3.582031-8 8v256c0 4.417969 3.582031 8 8 8h464c4.417969 0 8-3.582031 8-8v-256c0-4.417969-3.582031-8-8-8zm-80 208h-40v-216h40c8.835938 0 16 7.164062 16 16v204.296875c-4.859375-2.824219-10.378906-4.304687-16-4.296875zm-312-136h-8c-4.417969 0-8-3.582031-8-8s3.582031-8 8-8 8 3.582031 8 8zm24-16c4.417969 0 8 3.582031 8 8s-3.582031 8-8 8h-8v-8c0-4.417969 3.582031-8 8-8zm-24-40v25.472656c-5.96875-2.214844-12.582031-1.921875-18.332031.8125-5.75 2.738282-10.148438 7.683594-12.195313 13.714844h-33.472656v-40zm-64 56h33.472656c3.378906 9.554688 12.394532 15.957031 22.527344 16l-14.398438 19.199219 12.796876 9.601562 9.601562-12.800781v152h-64zm0 0"/><path d="m256 160c0-22.089844-17.910156-40-40-40s-40 17.910156-40 40 17.910156 40 40 40c22.082031-.027344 39.972656-17.917969 40-40zm-64 0c0-13.253906 10.746094-24 24-24s24 10.746094 24 24-10.746094 24-24 24-24-10.746094-24-24zm0 0"/><path d="m120 216h16v16h-16zm0 0"/><path d="m152 216h160v16h-160zm0 0"/><path d="m120 248h192v16h-192zm0 0"/><path d="m176 320h208v16h-208zm0 0"/><path d="m400 320h16v16h-16zm0 0"/><path d="m40 0h168v16h-168zm0 0"/></svg>